# xmcd CD database file
#
# Track frame offsets:
#	150
#	20377
#	41322
#	65245
#	94930
#	119097
#	142587
#	170502
#	188902
#	219962
#	247345
#	281650
#	305390
#
# Disc length: 4566 seconds
#
# Revision: 5
# Processed by: cddbd v1.5.2PL0 Copyright (c) Steve Scherf et al.
# Submitted via: CDex 1.79
#
DISCID=be11d40d
DTITLE=Metallica - ReLoad
DYEAR=1997
DGENRE=Heavy Metal
TTITLE0=Fuel
TTITLE1=The Memory Remains
TTITLE2=Devil's Dance
TTITLE3=The Unforgiven II
TTITLE4=Better Than You
TTITLE5=Slither
TTITLE6=Carpe Diem Baby
TTITLE7=Bad Seed
TTITLE8=Where the Wild Things Are
TTITLE9=Prince Charming
TTITLE10=Low Man's Lyric
TTITLE11=Attitude
TTITLE12=Fixxxer
EXTD=Produced by: Bob Rock, James Hetfield and Lars Ulrich [Vertigo] YEAR: 1997
EXTT0=Hetfield - Ulrich - Hammett
EXTT1=Hetfield - Ulrich
EXTT2=Hetfield - Ulrich
EXTT3=Hetfield - Ulrich - Hammett
EXTT4=Hetfield - Ulrich
EXTT5=Hetfield - Ulrich - Hammett
EXTT6=Hetfield - Ulrich - Hammett
EXTT7=Hetfield - Ulrich - Hammett
EXTT8=Hetfield - Ulrich - Newsted
EXTT9=Hetfield - Ulrich
EXTT10=Hetfield - Ulrich
EXTT11=Hetfield - Ulrich
EXTT12=Hetfield - Ulrich - Hammett
PLAYORDER=
